<svg xmlns="http://www.w3.org/2000/svg" width="32" height="32" viewBox="0 0 32 32"><path id="ALARM" d="M420.74 368.5a15.723 15.723 0 00-8.243-8.243 5.869 5.869 0 018.243 8.243zm-.24 6.5a14.433 14.433 0 01-3.963 9.94l2.029 2.028a1.483 1.483 0 11-2.1 2.1l-2.178-2.178a14.457 14.457 0 01-16.566.01l-2.163 2.163a1.5 1.5 0 01-2.122-2.121l2.012-2.012A14.494 14.494 0 11420.5 375zM406 363.5a11.5 11.5 0 1011.5 11.5 11.5 11.5 0 00-11.5-11.5zm6 13h-6a1.5 1.5 0 01-1.5-1.5v-8a1.5 1.5 0 013 0v6.5h4.5a1.5 1.5 0 010 3zm-20.713-7.8a5.994 5.994 0 018.419-8.418 16.057 16.057 0 00-8.419 8.423z" transform="translate(-390 -358.25)" fill="#95e1d3" fill-rule="evenodd"/></svg>