<svg xmlns="http://www.w3.org/2000/svg" width="32" height="32" viewBox="0 0 32 32"><path id="HOME" d="M822 544.5a1.5 1.5 0 01-2.52 1.094l-13.439-13.439-.041-.033-13.446 13.446a1.5 1.5 0 11-2.092-2.149l14.458-14.459a1.5 1.5 0 011.08-.46h.091l.068.006a1.5 1.5 0 01.933.468l5.9 5.9V533.5a1.5 1.5 0 113 0v4.378l5.6 5.6A1.489 1.489 0 01822 544.5zm-3 2.5v10.5a1.5 1.5 0 01-1.5 1.5h-3v-12h-6v12h-14a1.5 1.5 0 01-1.5-1.5V547l13-13zm-15.5 0h-6v6h6v-6z" transform="translate(-790 -527.75)" fill="#95e1d3" fill-rule="evenodd"/></svg>