<svg xmlns="http://www.w3.org/2000/svg" width="32" height="32" viewBox="0 0 32 32"><path id="BOOK_2" data-name="BOOK 2" d="M422.065 553.889l-14.471 5.988a1.5 1.5 0 01-1.188 0l-14.471-5.988A1.5 1.5 0 01391 552.5v-23a1.5 1.5 0 012.073-1.386h.013L407 533.876l13.911-5.756h.013A1.5 1.5 0 01423 529.5v23a1.5 1.5 0 01-.935 1.389zM405.5 536.5l-11.5-4.756V551.5l11.5 4.759V536.5zm14.5-4.758l-11.5 4.758v19.754L420 551.5v-19.756zm-9.121 6.89l5.5-2.5a1.5 1.5 0 011.242 2.731l-5.5 2.5a1.5 1.5 0 01-1.242-2.729zm0 5.5l5.5-2.5a1.5 1.5 0 011.242 2.731l-5.5 2.5a1.5 1.5 0 01-1.242-2.729zm0 5.5l5.5-2.5a1.5 1.5 0 011.242 2.731l-5.5 2.5a1.5 1.5 0 01-1.242-2.729zM397 536a1.5 1.5 0 01.621.134l5.5 2.5a1.5 1.5 0 01-.621 2.866 1.48 1.48 0 01-.621-.135l-5.5-2.5A1.5 1.5 0 01397 536zm0 5.5a1.5 1.5 0 01.621.134l5.5 2.5a1.5 1.5 0 11-1.242 2.731l-5.5-2.5A1.5 1.5 0 01397 541.5zm0 5.5a1.5 1.5 0 01.621.134l5.5 2.5a1.5 1.5 0 01-.621 2.866 1.48 1.48 0 01-.621-.135l-5.5-2.5A1.5 1.5 0 01397 547z" transform="translate(-391 -528)" fill="#95e1d3" fill-rule="evenodd"/></svg>