<svg xmlns="http://www.w3.org/2000/svg" width="32" height="32" viewBox="0 0 32 32"><path id="LINE_GRAPH" data-name="LINE GRAPH" d="M821.5 390h-29a1.5 1.5 0 01-1.5-1.5v-29a1.5 1.5 0 011.5-1.5h29a1.5 1.5 0 011.5 1.5v29a1.5 1.5 0 01-1.5 1.5zm-1.5-29h-26v26h26v-26zm-23.785 13.238l4-2.5a1.5 1.5 0 011.625.035l.006-.008 6.631 4.42 7.638-5.392a1.5 1.5 0 111.763 2.426l-8.5 6a1.5 1.5 0 01-1.739.012l-6.657-4.438-3.135 1.96a1.5 1.5 0 11-1.632-2.515z" transform="translate(-791 -358)" fill="#95e1d3" fill-rule="evenodd"/></svg>