<svg width="0" height="0" class="hidden">
		<symbol xmlns="http://www.w3.org/2000/svg" viewBox="0 0 512 512" id="facebook">
		  <path d="M288 192v-38.1c0-17.2 3.8-25.9 30.5-25.9H352V64h-55.9c-68.5 0-91.1 31.4-91.1 85.3V192h-45v64h45v192h83V256h56.4l7.6-64h-64z"></path>
		</symbol>
		<symbol xmlns="http://www.w3.org/2000/svg" viewBox="0 0 512 512" id="linkedin">
		  <path d="M417.2 64H96.8C79.3 64 64 76.6 64 93.9V415c0 17.4 15.3 32.9 32.8 32.9h320.3c17.6 0 30.8-15.6 30.8-32.9V93.9C448 76.6 434.7 64 417.2 64zM183 384h-55V213h55v171zm-25.6-197h-.4c-17.6 0-29-13.1-29-29.5 0-16.7 11.7-29.5 29.7-29.5s29 12.7 29.4 29.5c0 16.4-11.4 29.5-29.7 29.5zM384 384h-55v-93.5c0-22.4-8-37.7-27.9-37.7-15.2 0-24.2 10.3-28.2 20.3-1.5 3.6-1.9 8.5-1.9 13.5V384h-55V213h55v23.8c8-11.4 20.5-27.8 49.6-27.8 36.1 0 63.4 23.8 63.4 75.1V384z"></path>
		</symbol>
		<symbol xmlns="http://www.w3.org/2000/svg" viewBox="0 0 512 512" id="twitter">
		  <path d="M492 109.5c-17.4 7.7-36 12.9-55.6 15.3 20-12 35.4-31 42.6-53.6-18.7 11.1-39.4 19.2-61.5 23.5C399.8 75.8 374.6 64 346.8 64c-53.5 0-96.8 43.4-96.8 96.9 0 7.6.8 15 2.5 22.1-80.5-4-151.9-42.6-199.6-101.3-8.3 14.3-13.1 31-13.1 48.7 0 33.6 17.2 63.3 43.2 80.7-16-.4-31-4.8-44-12.1v1.2c0 47 33.4 86.1 77.7 95-8.1 2.2-16.7 3.4-25.5 3.4-6.2 0-12.3-.6-18.2-1.8 12.3 38.5 48.1 66.5 90.5 67.3-33.1 26-74.9 41.5-120.3 41.5-7.8 0-15.5-.5-23.1-1.4C62.8 432 113.7 448 168.3 448 346.6 448 444 300.3 444 172.2c0-4.2-.1-8.4-.3-12.5C462.6 146 479 129 492 109.5z"></path>
		</symbol>
		<symbol xmlns="http://www.w3.org/2000/svg" viewBox="0 0 512 512" id="instagram">
		  <circle cx="256" cy="255.833" r="80"></circle>
		  <path d="M177.805 176.887c21.154-21.154 49.279-32.929 79.195-32.929s58.041 11.837 79.195 32.991c13.422 13.422 23.011 29.551 28.232 47.551H448.5v-113c0-26.51-20.49-47-47-47h-288c-26.51 0-49 20.49-49 47v113h85.072c5.222-18 14.811-34.191 28.233-47.613zM416.5 147.7c0 7.069-5.73 12.8-12.8 12.8h-38.4c-7.069 0-12.8-5.73-12.8-12.8v-38.4c0-7.069 5.73-12.8 12.8-12.8h38.4c7.069 0 12.8 5.73 12.8 12.8v38.4zm-80.305 187.579c-21.154 21.154-49.279 32.679-79.195 32.679s-58.041-11.462-79.195-32.616c-21.115-21.115-32.759-49.842-32.803-78.842H64.5v143c0 26.51 22.49 49 49 49h288c26.51 0 47-22.49 47-49v-143h-79.502c-.043 29-11.687 57.664-32.803 78.779z"></path>
		</symbol>
	  </svg>