<svg xmlns="http://www.w3.org/2000/svg" width="32" height="32" viewBox="0 0 32 32">
  <defs>
    <style>
      .cls-1 {
        fill: #95e1d3;
        fill-rule: evenodd;
      }
    </style>
  </defs>
  <path id="COMPUTER_OK" data-name="COMPUTER / OK" class="cls-1" d="M1220,382h-9.5v2.5l2,2V387h-13v-0.5l2-2V382H1192a1.5,1.5,0,0,1-1.5-1.5v-20a1.5,1.5,0,0,1,1.5-1.5h28a1.5,1.5,0,0,1,1.5,1.5v20A1.5,1.5,0,0,1,1220,382Zm-0.5-21h-27v17h27V361Zm-16.5,7a1.5,1.5,0,0,1,1.06.439h0l0.94,0.939,2.94-2.939h0a1.5,1.5,0,1,1,2.12,2.121h0l-4,4h0a1.5,1.5,0,0,1-2.12,0h0l-2-2h0A1.5,1.5,0,0,1,1203,368Z" transform="translate(-1190 -357)"/>
</svg>
