<svg xmlns="http://www.w3.org/2000/svg" width="32" height="32" viewBox="0 0 32 32">
  <defs>
    <style>
      .cls-1 {
        fill: #95e1d3;
        fill-rule: evenodd;
      }
    </style>
  </defs>
  <path id="ALARM" class="cls-1" d="M420.74,368.5a15.723,15.723,0,0,0-8.243-8.243A5.869,5.869,0,0,1,420.74,368.5ZM420.5,375a14.433,14.433,0,0,1-3.963,9.94l2.029,2.028a1.483,1.483,0,1,1-2.1,2.1l-2.178-2.178a14.457,14.457,0,0,1-16.566.01l-2.163,2.163a1.5,1.5,0,0,1-2.122-2.121l2.012-2.012A14.494,14.494,0,1,1,420.5,375ZM406,363.5A11.5,11.5,0,1,0,417.5,375,11.5,11.5,0,0,0,406,363.5Zm6,13h-6a1.5,1.5,0,0,1-1.5-1.5v-8a1.5,1.5,0,0,1,3,0v6.5H412A1.5,1.5,0,0,1,412,376.5Zm-20.713-7.8a5.994,5.994,0,0,1,8.419-8.418A16.057,16.057,0,0,0,391.287,368.705Z" transform="translate(-390 -358.25)"/>
</svg>
