<svg xmlns="http://www.w3.org/2000/svg" width="32" height="32" viewBox="0 0 32 32">
  <defs>
    <style>
      .cls-1 {
        fill: #95e1d3;
        fill-rule: evenodd;
      }
    </style>
  </defs>
  <path id="HOME" class="cls-1" d="M822,544.5a1.5,1.5,0,0,1-2.52,1.094l0,0-13.439-13.439h0L806,532.122h0l-13.446,13.446h0a1.5,1.5,0,1,1-2.092-2.149l14.458-14.459A1.5,1.5,0,0,1,806,528.5h0l0.079,0h0.012l0.068,0.006h0a1.5,1.5,0,0,1,.933.468h0l5.9,5.9V533.5a1.5,1.5,0,1,1,3,0v4.378l5.6,5.6,0,0A1.489,1.489,0,0,1,822,544.5Zm-3,2.5v10.5a1.5,1.5,0,0,1-1.5,1.5h-3V547h-6v12h-14a1.5,1.5,0,0,1-1.5-1.5V547l13-13Zm-15.5,0h-6v6h6v-6Z" transform="translate(-790 -527.75)"/>
</svg>
