<svg xmlns="http://www.w3.org/2000/svg" width="32" height="32" viewBox="0 0 32 32">
  <defs>
    <style>
      .cls-1 {
        fill: #95e1d3;
        fill-rule: evenodd;
      }
    </style>
  </defs>
  <path id="IMAGE" class="cls-1" d="M1220.5,560h-29a1.5,1.5,0,0,1-1.5-1.5v-29a1.5,1.5,0,0,1,1.5-1.5h29a1.5,1.5,0,0,1,1.5,1.5v29A1.5,1.5,0,0,1,1220.5,560Zm-1.5-29h-26v26h26V531Zm-22.5,1.5h5.5a1.5,1.5,0,1,1,0,3h-4.5V540h0a1.5,1.5,0,1,1-3,0h0v-5.5h0v-2h2Zm-2,15.5h0a1.5,1.5,0,1,1,3,0h0v4.5h4.5a1.5,1.5,0,0,1,0,3h-7.5v-2h0V548Zm15.5-15.5h7.5v2h0V540h0a1.5,1.5,0,1,1-3,0h0v-4.5H1210A1.5,1.5,0,1,1,1210,532.5Zm0,20h4.5V548h0a1.5,1.5,0,1,1,3,0h0v5.5h0v2H1210A1.5,1.5,0,0,1,1210,552.5Z" transform="translate(-1190 -528)"/>
</svg>
