<svg xmlns="http://www.w3.org/2000/svg" width="32" height="32" viewBox="0 0 32 32">
  <defs>
    <style>
      .cls-1 {
        fill: #95e1d3;
        fill-rule: evenodd;
      }
    </style>
  </defs>
  <path id="BOOK_2" data-name="BOOK 2" class="cls-1" d="M422.065,553.889l-14.471,5.988a1.5,1.5,0,0,1-1.188,0l-14.471-5.988A1.5,1.5,0,0,1,391,552.5v-23a1.5,1.5,0,0,1,2.073-1.386h0l0.013,0L407,533.876l13.911-5.756,0.013,0h0A1.5,1.5,0,0,1,423,529.5v23A1.5,1.5,0,0,1,422.065,553.889ZM405.5,536.5L394,531.744V551.5l11.5,4.759V536.5Zm14.5-4.758L408.5,536.5v19.754L420,551.5V531.744Zm-9.121,6.89,5.5-2.5h0a1.5,1.5,0,0,1,1.242,2.731h0l-5.5,2.5h0A1.5,1.5,0,0,1,410.879,538.634Zm0,5.5h0l5.5-2.5h0a1.5,1.5,0,0,1,1.242,2.731l-5.5,2.5h0A1.5,1.5,0,0,1,410.879,544.134Zm0,5.5h0l5.5-2.5h0a1.5,1.5,0,0,1,1.242,2.731h0l-5.5,2.5h0A1.5,1.5,0,0,1,410.879,549.634ZM397,536a1.5,1.5,0,0,1,.621.134h0l5.5,2.5h0a1.5,1.5,0,0,1-.621,2.866,1.48,1.48,0,0,1-.621-0.135h0l-5.5-2.5h0A1.5,1.5,0,0,1,397,536Zm0,5.5a1.5,1.5,0,0,1,.621.134h0l5.5,2.5h0a1.5,1.5,0,1,1-1.242,2.731h0l-5.5-2.5h0A1.5,1.5,0,0,1,397,541.5Zm0,5.5a1.5,1.5,0,0,1,.621.134h0l5.5,2.5h0a1.5,1.5,0,0,1-.621,2.866,1.48,1.48,0,0,1-.621-0.135h0l-5.5-2.5h0A1.5,1.5,0,0,1,397,547Z" transform="translate(-391 -528)"/>
</svg>
