<svg xmlns="http://www.w3.org/2000/svg" width="32" height="32" viewBox="0 0 32 32">
  <defs>
    <style>
      .cls-1 {
        fill: #95e1d3;
        fill-rule: evenodd;
      }
    </style>
  </defs>
  <path id="LINE_GRAPH" data-name="LINE GRAPH" class="cls-1" d="M821.5,390h-29a1.5,1.5,0,0,1-1.5-1.5v-29a1.5,1.5,0,0,1,1.5-1.5h29a1.5,1.5,0,0,1,1.5,1.5v29A1.5,1.5,0,0,1,821.5,390ZM820,361H794v26h26V361Zm-23.785,13.238h0l4-2.5v0a1.5,1.5,0,0,1,1.625.035l0.006-.008,6.631,4.42,7.638-5.392a1.5,1.5,0,1,1,1.763,2.426h0l-8.5,6h0a1.5,1.5,0,0,1-1.739.012l-6.657-4.438-3.135,1.96A1.5,1.5,0,1,1,796.215,374.238Z" transform="translate(-791 -358)"/>
</svg>
